Sprint_05400001_forces_filt999Hz.mot
version=1
nRows=33
nColumns=19
inDegrees=yes
endheader
time	R_ground_force_vx	R_ground_force_vy	R_ground_force_vz	R_ground_force_px	R_ground_force_py	R_ground_force_pz	R_ground_torque_x	R_ground_torque_y	R_ground_torque_z	L_ground_force_vx	L_ground_force_vy	L_ground_force_vz	L_ground_force_px	L_ground_force_py	L_ground_force_pz	L_ground_torque_x	L_ground_torque_y	L_ground_torque_z	
1.809500	-323.633080	1910.002385	-20.966802	  0.956387	  0.000000	 -0.253326	  0.000000	 84.479095	  0.000000	  0.000000	  0.000000	  0.000000	  0.273507	  0.000000	 -0.336728	  0.000000	  0.000000	  0.000000
1.810000	-382.848974	1874.025281	 -2.684370	  0.957573	  0.000000	 -0.256857	  0.000000	 75.552054	  0.000000	  0.000000	  0.000000	  0.000000	  0.275190	  0.000000	 -0.337085	  0.000000	  0.000000	  0.000000
1.810500	-381.997707	1874.906032	 -2.808746	  0.957296	  0.000000	 -0.256798	  0.000000	 75.782047	  0.000000	  0.000000	  0.000000	  0.000000	  0.276907	  0.000000	 -0.337410	  0.000000	  0.000000	  0.000000
1.811000	-452.734470	1834.506167	 17.457136	  0.956243	  0.000000	 -0.259696	  0.000000	 59.833281	  0.000000	  0.000000	  0.000000	  0.000000	  0.278625	  0.000000	 -0.337734	  0.000000	  0.000000	  0.000000
1.811500	-451.882718	1835.232019	 16.951481	  0.956173	  0.000000	 -0.259589	  0.000000	 59.602502	  0.000000	  0.000000	  0.000000	  0.000000	  0.280342	  0.000000	 -0.338058	  0.000000	  0.000000	  0.000000
1.812000	-521.322969	1806.431167	 52.933725	  0.951981	  0.000000	 -0.256434	  0.000000	 37.015254	  0.000000	  0.000000	  0.000000	  0.000000	  0.282060	  0.000000	 -0.338382	  0.000000	  0.000000	  0.000000
1.812500	-520.470732	1806.849488	 52.504554	  0.951938	  0.000000	 -0.256539	  0.000000	 37.057410	  0.000000	  0.000000	  0.000000	  0.000000	  0.283777	  0.000000	 -0.338707	  0.000000	  0.000000	  0.000000
1.813000	-569.464692	1800.023670	 94.056069	  0.947708	  0.000000	 -0.249955	  0.000000	 12.906375	  0.000000	  0.000000	  0.000000	  0.000000	  0.285495	  0.000000	 -0.339031	  0.000000	  0.000000	  0.000000
1.813500	-568.688263	1800.287004	 93.474495	  0.947745	  0.000000	 -0.250084	  0.000000	 12.890628	  0.000000	  0.000000	  0.000000	  0.000000	  0.287213	  0.000000	 -0.339355	  0.000000	  0.000000	  0.000000
1.814000	-594.336761	1800.482650	120.301094	  0.942382	  0.000000	 -0.246738	  0.000000	 -7.694211	  0.000000	  0.000000	  0.000000	  0.000000	  0.288930	  0.000000	 -0.339679	  0.000000	  0.000000	  0.000000
1.814500	-593.941316	1800.590953	120.024879	  0.942364	  0.000000	 -0.246787	  0.000000	 -7.355161	  0.000000	  0.000000	  0.000000	  0.000000	  0.290648	  0.000000	 -0.340003	  0.000000	  0.000000	  0.000000
1.815000	-602.958220	1795.295899	131.516213	  0.935518	  0.000000	 -0.248097	  0.000000	-20.017374	  0.000000	  0.000000	  0.000000	  0.000000	  0.292365	  0.000000	 -0.340328	  0.000000	  0.000000	  0.000000
1.815500	-602.714877	1795.401717	131.392767	  0.935568	  0.000000	 -0.248180	  0.000000	-19.888556	  0.000000	  0.000000	  0.000000	  0.000000	  0.294112	  0.000000	 -0.340592	  0.000000	  0.000000	  0.000000
1.816000	-603.645108	1797.280800	137.848522	  0.934621	  0.000000	 -0.250744	  0.000000	-25.750463	  0.000000	  0.000000	  0.000000	  0.000000	  0.295859	  0.000000	 -0.340857	  0.000000	  0.000000	  0.000000
1.816500	-603.706456	1797.384090	137.801547	  0.934536	  0.000000	 -0.250657	  0.000000	-25.725241	  0.000000	  0.000000	  0.000000	  0.000000	  0.297606	  0.000000	 -0.341122	  0.000000	  0.000000	  0.000000
1.817000	-598.304773	1810.404638	151.428756	  0.942950	  0.000000	 -0.250207	  0.000000	-31.193732	  0.000000	  0.000000	  0.000000	  0.000000	  0.299353	  0.000000	 -0.341386	  0.000000	  0.000000	  0.000000
1.817500	-598.365638	1810.352771	151.153075	  0.942675	  0.000000	 -0.250244	  0.000000	-31.427713	  0.000000	  0.000000	  0.000000	  0.000000	  0.301099	  0.000000	 -0.341651	  0.000000	  0.000000	  0.000000
1.818000	-583.885459	1828.411309	186.295002	  0.950489	  0.000000	 -0.244305	  0.000000	-39.235373	  0.000000	  0.000000	  0.000000	  0.000000	  0.302846	  0.000000	 -0.341916	  0.000000	  0.000000	  0.000000
1.818500	-583.945842	1828.356833	185.714318	  0.950350	  0.000000	 -0.244374	  0.000000	-39.458971	  0.000000	  0.000000	  0.000000	  0.000000	  0.304593	  0.000000	 -0.342180	  0.000000	  0.000000	  0.000000
1.819000	-556.801348	1862.287140	233.597163	  0.950308	  0.000000	 -0.236682	  0.000000	-53.951603	  0.000000	  0.000000	  0.000000	  0.000000	  0.306340	  0.000000	 -0.342445	  0.000000	  0.000000	  0.000000
1.819500	-557.013840	1861.772251	232.864061	  0.950274	  0.000000	 -0.236841	  0.000000	-54.080822	  0.000000	  0.000000	  0.000000	  0.000000	  0.308086	  0.000000	 -0.342710	  0.000000	  0.000000	  0.000000
1.820000	-517.205030	1907.301907	258.011141	  0.945801	  0.000000	 -0.234808	  0.000000	-75.710892	  0.000000	  0.000000	  0.000000	  0.000000	  0.309833	  0.000000	 -0.342974	  0.000000	  0.000000	  0.000000
1.820500	-517.722220	1906.479154	257.507089	  0.945982	  0.000000	 -0.234905	  0.000000	-75.720571	  0.000000	  0.000000	  0.000000	  0.000000	  0.311583	  0.000000	 -0.343360	  0.000000	  0.000000	  0.000000
1.821000	-485.161810	1966.202192	246.490672	  0.947579	  0.000000	 -0.243171	  0.000000	-95.030832	  0.000000	  0.000000	  0.000000	  0.000000	  0.313332	  0.000000	 -0.343746	  0.000000	  0.000000	  0.000000
1.821500	-485.525939	1965.376711	246.673432	  0.947569	  0.000000	 -0.243113	  0.000000	-94.695207	  0.000000	  0.000000	  0.000000	  0.000000	  0.315082	  0.000000	 -0.344133	  0.000000	  0.000000	  0.000000
1.822000	-477.608945	2065.538287	223.678700	  0.960753	  0.000000	 -0.257628	  0.000000	-104.791087	  0.000000	  0.000000	  0.000000	  0.000000	  0.316831	  0.000000	 -0.344519	  0.000000	  0.000000	  0.000000
1.822500	-477.667428	2064.099689	224.166800	  0.960678	  0.000000	 -0.257477	  0.000000	-104.484409	  0.000000	  0.000000	  0.000000	  0.000000	  0.318580	  0.000000	 -0.344905	  0.000000	  0.000000	  0.000000
1.823000	-475.244066	2177.386607	217.422514	  0.975257	  0.000000	 -0.265137	  0.000000	-105.114473	  0.000000	  0.000000	  0.000000	  0.000000	  0.320330	  0.000000	 -0.345291	  0.000000	  0.000000	  0.000000
1.823500	-475.225789	2175.945208	217.605602	  0.975027	  0.000000	 -0.265056	  0.000000	-105.083902	  0.000000	  0.000000	  0.000000	  0.000000	  0.322079	  0.000000	 -0.345677	  0.000000	  0.000000	  0.000000
1.824000	-454.034581	2234.608480	244.430490	  0.974757	  0.000000	 -0.259959	  0.000000	-91.674432	  0.000000	  0.000000	  0.000000	  0.000000	  0.323829	  0.000000	 -0.346063	  0.000000	  0.000000	  0.000000
1.824500	-454.397311	2233.774595	244.155976	  0.974758	  0.000000	 -0.260052	  0.000000	-92.036691	  0.000000	  0.000000	  0.000000	  0.000000	  0.325578	  0.000000	 -0.346449	  0.000000	  0.000000	  0.000000
1.825000	-429.010396	2265.432666	297.454701	  0.962195	  0.000000	 -0.248178	  0.000000	-70.556689	  0.000000	  0.000000	  0.000000	  0.000000	  0.327328	  0.000000	 -0.346836	  0.000000	  0.000000	  0.000000
1.825500	-429.525257	2265.206259	296.722585	  0.962310	  0.000000	 -0.248306	  0.000000	-71.063633	  0.000000	  0.000000	  0.000000	  0.000000	  0.329131	  0.000000	 -0.347167	  0.000000	  0.000000	  0.000000
